# xmcd
#
# Track frame offsets:
#	150
#	15325
#	31880
#	46355
#	60765
#	73035
#	91817
#	108612
#	125390
#	139255
#	153925
#	171875
#	193790
#	211472
#	227222
#
# Disc length: 3240
#
# Revision: 1
# Processed by: cddbd v1.5.1PL0 Copyright (c) Steve Scherf et al.
# Submitted via: VisiTrax 2.9.5.180 - For more info visit www.synapsa.com
# Normalized: r0:DSETVAR1
#
DISCID=c60ca60f
DTITLE=Various Artist - CDX 152 January 1997
DYEAR=1997
DGENRE=
TTITLE0=Thraser Shiver - Be honest
TTITLE1=Kippi Brannon - Daddy's little girl
TTITLE2=Terri Clark - Emotional girl
TTITLE3=Alan Jackson - Everything I love
TTITLE4=Gary Allan - Forever and a day
TTITLE5=David Lee Murphy - Genuine rednecks
TTITLE6=Reba McEntire - How was I to know
TTITLE7=Buffalo Club - If she don't love you
TTITLE8=George Ducas - Long trail of tears
TTITLE9=Jim Austin - Man in the mirror
TTITLE10=Bellamy Brothers - She's awesome
TTITLE11=Jamie Warren - The secret
TTITLE12=Chris LeDoux - When I say forever
TTITLE13=Great Plains - Wolverton mountain
TTITLE14=Wildhorses - Ride cowboy ride
EXTD=
EXTT0=
EXTT1=
EXTT2=
EXTT3=
EXTT4=
EXTT5=
EXTT6=
EXTT7=
EXTT8=
EXTT9=
EXTT10=
EXTT11=
EXTT12=
EXTT13=
EXTT14=
PLAYORDER=
